<?xml version="1.0" encoding="utf-8"?>
<!-- Generator: Adobe Illustrator 16.0.0, SVG Export Plug-In . SVG Version: 6.00 Build 0)  -->
<!DOCTYPE svg PUBLIC "-//W3C//DTD SVG 1.1//EN" "http://www.w3.org/Graphics/SVG/1.1/DTD/svg11.dtd">
<svg version="1.1" id="Layer_1" xmlns="http://www.w3.org/2000/svg" xmlns:xlink="http://www.w3.org/1999/xlink" x="0px" y="0px"
	 width="1089px" height="788px" viewBox="0 0 1089 788" enable-background="new 0 0 1089 788" xml:space="preserve">
<g>
	<g>
		<rect fill="#FFFFFF" width="1089" height="788"/>
	</g>
	<g>
		
			<text transform="matrix(1 0 0 1 114.0708 81.8643)" fill="#012037" font-family="'Roboto-Medium'" font-size="26.0651" letter-spacing="2">Cómo comprar</text>
		<text transform="matrix(1 0 0 1 158.0708 158.8643)"><tspan x="0" y="0" fill="#012037" font-family="'Roboto-Medium'" font-size="26.0651">1. </tspan><tspan x="28.585" y="0" fill="#012037" font-family="'Roboto-Light'" font-size="26.0651">Elegí el producto PALAPENIA que amás y agregalo al carrito</tspan></text>
		<text transform="matrix(1 0 0 1 158.0708 250.771)"><tspan x="0" y="0" fill="#012037" font-family="'Roboto-Medium'" font-size="26.0651">2. </tspan><tspan x="28.585" y="0" fill="#012037" font-family="'Roboto-Light'" font-size="26.0651">Escribí la dirección de tu casa o de donde quieras recibirlo.</tspan></text>
		<text transform="matrix(1 0 0 1 158.0708 342.6792)"><tspan x="0" y="0" fill="#012037" font-family="'Roboto-Medium'" font-size="26.0651">3. </tspan><tspan x="28.585" y="0" fill="#012037" font-family="'Roboto-Light'" font-size="26.0651">Realizá el pago a través de Mercado Pago. </tspan><tspan x="0" y="31.278" fill="#012037" font-family="'Roboto-Light'" font-size="26.0651">Tenes muchas opciones de tarjetas, cuotas sin interés y es súper seguro!</tspan></text>
		<text transform="matrix(1 0 0 1 158.0708 465.8643)"><tspan x="0" y="0" fill="#012037" font-family="'Roboto-Medium'" font-size="26.0651">4. </tspan><tspan x="28.585" y="0" fill="#012037" font-family="'Roboto-Light'" font-size="26.0651">Listo! En 5 días tu pedido estará en tu casa! </tspan></text>
		<g>
			<rect x="97.953" y="526.955" fill="none" width="771.117" height="226.045"/>
			<text transform="matrix(1 0 0 1 97.9546 544.4746)"><tspan x="0" y="0" fill="#012037" font-family="'Roboto-Light'" font-size="23">Si necesitas ayuda en cualquiera de los pasos, consultanos. </tspan><tspan x="0" y="27.6" fill="#012037" font-family="'Roboto-Light'" font-size="23">Tenemos un equipo atento para ayudarte ante cualquier dificultad.</tspan><tspan x="0" y="82.8" fill="#012037" font-family="'Roboto-Light'" font-size="23">Escribinos a </tspan><tspan x="128.196" y="82.8" fill="#EC7EB2" font-family="'Roboto-Light'" font-size="23">ventas@palapenia.com.ar</tspan><tspan x="390.573" y="82.8" fill="#012037" font-family="'Roboto-Light'" font-size="23"> o a nuestra página de facebook </tspan><tspan x="0" y="110.4" fill="#012037" font-family="'Roboto-Light'" font-size="23">y te ayudamos en lo que necesites!</tspan></text>
		</g>
		<line fill="none" stroke="#EC7EB2" stroke-width="2" stroke-miterlimit="10" x1="126.579" y1="152.5" x2="127.079" y2="459"/>
		<circle fill="#EC7EB2" cx="127.07" cy="152.545" r="6.389"/>
		<circle fill="#EC7EB2" cx="127.07" cy="244.479" r="6.389"/>
		<circle fill="#EC7EB2" cx="127.07" cy="336.412" r="6.389"/>
		<circle fill="#EC7EB2" cx="127.07" cy="456.454" r="6.389"/>
	</g>
</g>
</svg>
